<svg width="512" height="512" viewBox="0 0 512 512" fill="none" xmlns="http://www.w3.org/2000/svg">
  <path
    d="M260.762 110.035C279.263 77.9891 320.24 67.0094 352.285 85.511C376.67 99.5893 388.857 126.681 385.139 152.948"
    stroke="white" stroke-width="24" />
  <path
    d="M205.869 181.11C202.556 186.85 204.522 194.189 210.262 197.503C216.001 200.817 223.34 198.85 226.654 193.11L205.869 181.11ZM250.869 103.168L205.869 181.11L226.654 193.11L271.654 115.168L250.869 103.168Z"
    fill="white" />
  <path
    d="M216.565 187.15C216.703 187.389 216.621 187.695 216.382 187.833C216.143 187.971 215.837 187.889 215.699 187.65C215.561 187.41 215.643 187.105 215.882 186.967C216.121 186.828 216.427 186.91 216.565 187.15Z"
    fill="white" />
  <path
    d="M257.482 406.054C238.981 438.1 198.004 449.079 165.959 430.578C141.574 416.499 129.387 389.408 133.105 363.14"
    stroke="white" stroke-width="24" />
  <line x1="256.985" y1="406.92" x2="301.985" y2="328.978" stroke="white" stroke-width="24" />
  <path
    d="M312.82 306.395C320.552 319.787 315.963 336.912 302.571 344.644C289.179 352.376 272.054 347.787 264.322 334.395C256.59 321.003 261.179 303.878 274.571 296.146C287.963 288.414 305.088 293.003 312.82 306.395Z"
    fill="white" />
  <path
    d="M288.438 321.079C288.576 321.318 288.494 321.624 288.255 321.762C288.016 321.9 287.71 321.818 287.572 321.579C287.434 321.34 287.516 321.034 287.755 320.896C287.994 320.758 288.3 320.84 288.438 321.079Z"
    fill="white" />
  <path
    d="M385.469 333.588C403.97 365.633 392.991 406.61 360.945 425.111C336.561 439.19 307.005 436.198 286.116 419.844"
    stroke="white" stroke-width="24" />
  <path
    d="M351.459 250.609C348.145 244.87 340.806 242.903 335.066 246.217C329.327 249.531 327.36 256.87 330.674 262.609L351.459 250.609ZM396.459 328.552L351.459 250.609L330.674 262.609L375.674 340.552L396.459 328.552Z"
    fill="white" />
  <path
    d="M341.104 256.742C341.242 256.981 341.16 257.287 340.921 257.425C340.682 257.563 340.376 257.481 340.238 257.242C340.1 257.003 340.182 256.697 340.421 256.559C340.66 256.421 340.966 256.503 341.104 256.742Z"
    fill="white" />
  <path
    d="M387.359 185.144C424.362 185.144 454.359 215.141 454.359 252.144C454.359 280.301 436.991 304.401 412.383 314.315"
    stroke="white" stroke-width="24" />
  <line x1="388.457" y1="185.242" x2="298.457" y2="185.242" stroke="white" stroke-width="24" />
  <path
    d="M322.822 187.395C330.554 200.787 325.965 217.912 312.573 225.644C299.181 233.376 282.056 228.787 274.324 215.395C266.592 202.003 271.181 184.878 284.573 177.146C297.965 169.414 315.09 174.003 322.822 187.395Z"
    fill="white" />
  <path
    d="M299.44 202.079C299.578 202.318 299.496 202.624 299.257 202.762C299.018 202.9 298.712 202.818 298.574 202.579C298.436 202.34 298.518 202.034 298.757 201.896C298.996 201.758 299.302 201.84 299.44 202.079Z"
    fill="white" />
  <path
    d="M130.783 183.214C112.282 151.168 123.261 110.191 155.307 91.6899C179.691 77.6117 209.247 80.6032 230.136 96.9569"
    stroke="white" stroke-width="24" />
  <line x1="130.185" y1="182.249" x2="175.185" y2="260.192" stroke="white" stroke-width="24" />
  <path
    d="M212.822 237.395C220.554 250.787 215.965 267.912 202.573 275.644C189.181 283.376 172.056 278.787 164.324 265.395C156.592 252.003 161.181 234.878 174.573 227.146C187.965 219.414 205.09 224.003 212.822 237.395Z"
    fill="white" />
  <path
    d="M188.44 251.079C188.578 251.318 188.496 251.624 188.257 251.762C188.018 251.9 187.712 251.818 187.574 251.579C187.436 251.34 187.518 251.034 187.757 250.896C187.996 250.758 188.302 250.84 188.44 251.079Z"
    fill="white" />
  <path
    d="M129.395 330.791C92.3915 330.791 62.3945 300.794 62.3945 263.791C62.3945 235.634 79.7629 211.535 104.37 201.62"
    stroke="white" stroke-width="24" />
  <path
    d="M218.295 342.692C224.922 342.692 230.295 337.32 230.295 330.692C230.295 324.065 224.922 318.692 218.295 318.692L218.295 342.692ZM128.295 342.692L218.295 342.692L218.295 318.692L128.295 318.692L128.295 342.692Z"
    fill="white" />
  <path
    d="M218.595 330.929C218.733 331.168 218.651 331.474 218.412 331.612C218.172 331.75 217.867 331.668 217.729 331.429C217.59 331.19 217.672 330.884 217.912 330.746C218.151 330.608 218.456 330.69 218.595 330.929Z"
    fill="white" />
</svg>